<?xml version="1.0" encoding="UTF-8" standalone="no"?>
<svg
   xmlns:dc="http://purl.org/dc/elements/1.1/"
   xmlns:cc="http://creativecommons.org/ns#"
   xmlns:rdf="http://www.w3.org/1999/02/22-rdf-syntax-ns#"
   xmlns:svg="http://www.w3.org/2000/svg"
   xmlns="http://www.w3.org/2000/svg"
   xmlns:sodipodi="http://sodipodi.sourceforge.net/DTD/sodipodi-0.dtd"
   xmlns:inkscape="http://www.inkscape.org/namespaces/inkscape"
   height="100px"
   width="100px"
   fill="#000000"
   version="1.1"
   x="0px"
   y="0px"
   viewBox="0 0 60 60"
   style="enable-background:new 0 0 60 60;"
   xml:space="preserve"
   id="svg3182"
   sodipodi:docname="logo_turtle.svg"
   inkscape:version="0.92.2 5c3e80d, 2017-08-06"
   inkscape:export-filename="/Users/nikhillanjewar/Downloads/logo_turtle_square.png"
   inkscape:export-xdpi="297.48001"
   inkscape:export-ydpi="297.48001"><metadata
     id="metadata3188"><rdf:RDF><cc:Work
         rdf:about=""><dc:format>image/svg+xml</dc:format><dc:type
           rdf:resource="http://purl.org/dc/dcmitype/StillImage" /><dc:title></dc:title></cc:Work></rdf:RDF></metadata><defs
     id="defs3186" /><sodipodi:namedview
     pagecolor="#ffffff"
     bordercolor="#666666"
     borderopacity="1"
     objecttolerance="10"
     gridtolerance="10"
     guidetolerance="10"
     inkscape:pageopacity="0"
     inkscape:pageshadow="2"
     inkscape:window-width="1280"
     inkscape:window-height="690"
     id="namedview3184"
     showgrid="false"
     inkscape:zoom="2.36"
     inkscape:cx="50"
     inkscape:cy="50"
     inkscape:window-x="18"
     inkscape:window-y="30"
     inkscape:window-maximized="0"
     inkscape:current-layer="svg3182" /><rect
     style="opacity:1;fill:#ffffff;fill-opacity:1;stroke:none;stroke-width:0.22677165;stroke-miterlimit:4;stroke-dasharray:none;stroke-opacity:1"
     id="rect7496"
     width="59.745762"
     height="60"
     x="0.12711906"
     y="-8.5265132e-15"
     inkscape:export-filename="/Users/nikhillanjewar/Downloads/logo_turtle_square.png"
     inkscape:export-xdpi="297.48001"
     inkscape:export-ydpi="297.48001" /><path
     d="m 30.00249,13.497823 c -1.805753,0 -3.273241,1.855486 -3.273241,4.138802 0,0.547188 0.07961,1.074484 0.238797,1.561976 0.93521,-0.502402 1.959959,-0.776023 3.034444,-0.776023 1.074515,0 2.099265,0.273621 3.029495,0.776023 0.159188,-0.487492 0.238765,-1.014788 0.238765,-1.561976 0,-2.283316 -1.467487,-4.138802 -3.26826,-4.138802 z"
     id="path3158"
     style="fill:#585858;fill-opacity:0.94117647;stroke-width:0.49745166"
     inkscape:connector-curvature="0" /><path
     d="m 22.287004,37.848099 c 0.338266,0.338257 0.785985,0.522316 1.263546,0.522316 0.477539,0 0.925258,-0.184059 1.263524,-0.522316 l 0.945163,-0.945171 c -0.895437,-0.726289 -1.66648,-1.67641 -2.263425,-2.790699 l -1.208808,1.2088 c -0.338257,0.338266 -0.522316,0.785985 -0.522316,1.263524 0,0.477562 0.184059,0.925249 0.522316,1.263546 z"
     id="path3160"
     style="fill:#585858;fill-opacity:0.94117647;stroke-width:0.49745166"
     inkscape:connector-curvature="0" /><path
     d="m 36.44948,38.370415 c 0.477531,0 0.92525,-0.184059 1.263515,-0.522316 0.338258,-0.338297 0.522316,-0.785984 0.522316,-1.263546 0,-0.477539 -0.184058,-0.925258 -0.522316,-1.263524 l -1.208808,-1.2088 c -0.596946,1.114289 -1.367988,2.069382 -2.263402,2.790699 l 0.94514,0.945171 c 0.338298,0.338257 0.785985,0.522316 1.263555,0.522316 z"
     id="path3162"
     style="fill:#585858;fill-opacity:0.94117647;stroke-width:0.49745166"
     inkscape:connector-curvature="0" /><path
     d="m 37.712995,19.064308 c -0.671551,-0.676553 -1.850507,-0.671574 -2.52707,0 l -0.94514,0.945141 c 0.895414,0.721316 1.666456,1.67641 2.263402,2.790729 l 1.208808,-1.208831 c 0.338258,-0.338266 0.522316,-0.785953 0.522316,-1.263523 0,-0.477562 -0.184058,-0.925249 -0.522316,-1.263516 z"
     id="path3164"
     style="fill:#585858;fill-opacity:0.94117647;stroke-width:0.49745166"
     inkscape:connector-curvature="0" /><path
     d="m 23.55055,18.556903 c -0.462621,0 -0.92528,0.16914 -1.263546,0.507405 -0.338257,0.338266 -0.522316,0.785954 -0.522316,1.263516 0,0.47757 0.184059,0.925257 0.522316,1.263523 l 1.208808,1.208831 c 0.596945,-1.114319 1.367988,-2.06444 2.263425,-2.790729 L 24.814074,19.064308 C 24.475808,18.726043 24.013179,18.556903 23.55055,18.556903 Z"
     id="path3166"
     style="fill:#585858;fill-opacity:0.94117647;stroke-width:0.49745166"
     inkscape:connector-curvature="0" /><path
     d="m 23.704765,24.804892 c -0.37807,1.114289 -0.591972,2.347992 -0.591972,3.651312 0,1.298339 0.213902,2.536991 0.591972,3.65128 l 2.666336,-2.084323 v -3.133945 z"
     id="path3168"
     style="fill:#585858;fill-opacity:1;stroke-width:0.49745166"
     inkscape:connector-curvature="0" /><path
     d="m 24.087777,23.839838 2.820573,2.208687 2.596687,-1.49734 v -5.103857 c -2.308188,0.218883 -4.297991,1.925136 -5.41726,4.39251 z"
     id="path3170"
     style="fill:#585858;fill-opacity:0.94117647;stroke-width:0.49745166"
     inkscape:connector-curvature="0" /><path
     d="m 30.499942,24.551185 2.591731,1.49734 2.820549,-2.208687 c -1.119269,-2.467374 -3.109073,-4.173627 -5.41228,-4.39251 z"
     id="path3172"
     style="fill:#585858;fill-opacity:0.94117647;stroke-width:0.49745166"
     inkscape:connector-curvature="0" /><path
     d="m 29.505037,37.465048 v -5.103857 l -2.596687,-1.49734 -2.820573,2.208687 c 1.119269,2.467374 3.109072,4.173627 5.41726,4.39251 z"
     id="path3174"
     style="fill:#585858;fill-opacity:0.94117647;stroke-width:0.49745166"
     inkscape:connector-curvature="0" /><path
     d="m 35.912222,33.072539 -2.820549,-2.208688 -2.591731,1.49734 v 5.103857 c 2.303207,-0.218883 4.293011,-1.925136 5.41228,-4.392509 z"
     id="path3176"
     style="fill:#585858;fill-opacity:0.94117647;stroke-width:0.49745166"
     inkscape:connector-curvature="0" /><polygon
     points="24.705017,38.130005 30.005005,41.190002 35.304993,38.130005 35.304993,32.01001 30.005005,28.950012 24.705017,32.01001 "
     id="polygon3178"
     style="fill:#585858;fill-opacity:0.94117647"
     transform="matrix(0.49745186,0,0,0.49745186,15.076444,11.010565)" /><path
     d="m 36.887237,28.456204 c 0,-1.30332 -0.213902,-2.537023 -0.591972,-3.651312 l -2.661386,2.084324 v 3.133944 l 2.661386,2.084324 c 0.37807,-1.114289 0.591972,-2.352941 0.591972,-3.65128 z"
     id="path3180"
     style="fill:#585858;fill-opacity:0.94117647;stroke-width:0.49745166"
     inkscape:connector-curvature="0" /><text
     xml:space="preserve"
     style="font-style:normal;font-variant:normal;font-weight:bold;font-stretch:normal;font-size:4.80000019px;line-height:1.25;font-family:Helvetica;-inkscape-font-specification:'Helvetica Bold';letter-spacing:0px;word-spacing:1.09804165px;opacity:0.93999999;fill:#585858;fill-opacity:1;stroke:none;stroke-width:0.54902083;"
     x="7.0453382"
     y="46.406082"
     id="text7473"><tspan
       sodipodi:role="line"
       id="tspan7471"
       x="7.0453382"
       y="46.406082"
       style="font-style:normal;font-variant:normal;font-weight:bold;font-stretch:normal;font-size:4.80000019px;font-family:Helvetica;-inkscape-font-specification:'Helvetica Bold';letter-spacing:0px;word-spacing:1.09804165px;fill:#585858;fill-opacity:1;stroke-width:0.54902083;">S  L  O  W  C  O</tspan></text>
</svg>