<?xml version="1.0" encoding="UTF-8" standalone="no"?>
<svg
   xmlns:dc="http://purl.org/dc/elements/1.1/"
   xmlns:cc="http://creativecommons.org/ns#"
   xmlns:rdf="http://www.w3.org/1999/02/22-rdf-syntax-ns#"
   xmlns:svg="http://www.w3.org/2000/svg"
   xmlns="http://www.w3.org/2000/svg"
   xmlns:sodipodi="http://sodipodi.sourceforge.net/DTD/sodipodi-0.dtd"
   xmlns:inkscape="http://www.inkscape.org/namespaces/inkscape"
   height="100px"
   width="100px"
   fill="#000000"
   version="1.1"
   x="0px"
   y="0px"
   viewBox="0 0 60 60"
   style="enable-background:new 0 0 60 60;"
   xml:space="preserve"
   id="svg3182"
   sodipodi:docname="logo_turtle.svg"
   inkscape:version="0.92.2 5c3e80d, 2017-08-06"><metadata
     id="metadata3188"><rdf:RDF><cc:Work
         rdf:about=""><dc:format>image/svg+xml</dc:format><dc:type
           rdf:resource="http://purl.org/dc/dcmitype/StillImage" /><dc:title></dc:title></cc:Work></rdf:RDF></metadata><defs
     id="defs3186" /><sodipodi:namedview
     pagecolor="#ffffff"
     bordercolor="#666666"
     borderopacity="1"
     objecttolerance="10"
     gridtolerance="10"
     guidetolerance="10"
     inkscape:pageopacity="0"
     inkscape:pageshadow="2"
     inkscape:window-width="1280"
     inkscape:window-height="690"
     id="namedview3184"
     showgrid="false"
     inkscape:zoom="2.36"
     inkscape:cx="50"
     inkscape:cy="50"
     inkscape:window-x="0"
     inkscape:window-y="1"
     inkscape:window-maximized="1"
     inkscape:current-layer="svg3182" /><path
     d="M30.0050049,5C26.375,5,23.4249878,8.7299805,23.4249878,13.3200073c0,1.0999756,0.1600342,2.1599731,0.4800415,3.1399536  c1.8800049-1.0099487,3.9400024-1.5599976,6.0999756-1.5599976c2.1600342,0,4.2200317,0.5500488,6.0900269,1.5599976  c0.3200073-0.9799805,0.4799805-2.039978,0.4799805-3.1399536C36.5750122,8.7299805,33.625,5,30.0050049,5z"
     id="path3158"
     style="fill:#585858;fill-opacity:1" /><path
     d="M14.4949951,53.9500122C15.1749878,54.6300049,16.0750122,55,17.0350342,55  c0.9599609,0,1.8599854-0.3699951,2.539978-1.0499878l1.9000244-1.9000244  c-1.8000488-1.460022-3.3500366-3.3699951-4.5500488-5.6099854l-2.4299927,2.4299927  c-0.6799927,0.6799927-1.0499878,1.5800171-1.0499878,2.539978C13.4450073,52.3699951,13.8150024,53.2699585,14.4949951,53.9500122z  "
     id="path3160"
     style="fill:#585858;fill-opacity:1" /><path
     d="M42.9650269,55c0.9599609,0,1.8599854-0.3699951,2.539978-1.0499878  c0.6799927-0.6800537,1.0499878-1.5800171,1.0499878-2.5400391c0-0.9599609-0.3699951-1.8599854-1.0499878-2.539978  l-2.4299927-2.4299927c-1.2000122,2.2399902-2.75,4.1599731-4.5499878,5.6099854l1.8999634,1.9000244  C41.1050415,54.6300049,42.0050049,55,42.9650269,55z"
     id="path3162"
     style="fill:#585858;fill-opacity:1" /><path
     d="M45.5050049,16.1900024c-1.3499756-1.3600464-3.7199707-1.3500366-5.0800171,0l-1.8999634,1.8999634  c1.7999878,1.4500122,3.3499756,3.3699951,4.5499878,5.6100464l2.4299927-2.4300537  c0.6799927-0.6799927,1.0499878-1.5799561,1.0499878-2.539978S46.1849976,16.8699951,45.5050049,16.1900024z"
     id="path3164"
     style="fill:#585858;fill-opacity:1" /><path
     d="M17.0350342,15.1699829c-0.9299927,0-1.8600464,0.3400269-2.5400391,1.0200195s-1.0499878,1.5799561-1.0499878,2.539978  s0.3699951,1.8599854,1.0499878,2.539978l2.4299927,2.4300537c1.2000122-2.2400513,2.75-4.1500244,4.5500488-5.6100464  l-1.9000244-1.8999634C18.8950195,15.5100098,17.9650269,15.1699829,17.0350342,15.1699829z"
     id="path3166"
     style="fill:#585858;fill-opacity:1" /><path
     d="M17.3450317,27.7299805c-0.7600098,2.2399902-1.1900024,4.7200317-1.1900024,7.3400269  c0,2.6099854,0.4299927,5.0999756,1.1900024,7.3399658l5.3599854-4.1900024v-6.2999878L17.3450317,27.7299805z"
     id="path3168"
     style="fill:#585858;fill-opacity:1" /><path
     d="M18.1149902,25.789978l5.6700439,4.4400024l5.2199707-3.0100098V16.9599609  C24.3649902,17.3999634,20.3649902,20.8299561,18.1149902,25.789978z"
     id="path3170"
     style="fill:#585858;fill-opacity:1" /><path
     d="M31.0050049,27.2199707l5.210022,3.0100098l5.6699829-4.4400024c-2.25-4.960022-6.25-8.3900146-10.8800049-8.8300171  V27.2199707z"
     id="path3172"
     style="fill:#585858;fill-opacity:1" /><path
     d="M29.0050049,53.1799927V42.9199829l-5.2199707-3.0100098l-5.6700439,4.4400024  C20.3649902,49.3099976,24.3649902,52.7399902,29.0050049,53.1799927z"
     id="path3174"
     style="fill:#585858;fill-opacity:1" /><path
     d="M41.8850098,44.3499756l-5.6699829-4.4400024l-5.210022,3.0100098v10.2600098  C35.6350098,52.7399902,39.6350098,49.3099976,41.8850098,44.3499756z"
     id="path3176"
     style="fill:#585858;fill-opacity:1" /><polygon
     points="35.3049927,38.1300049 35.3049927,32.0100098 30.0050049,28.9500122 24.7050171,32.0100098 24.7050171,38.1300049   30.0050049,41.1900024 "
     id="polygon3178"
     style="fill:#585858;fill-opacity:1" /><path
     d="M43.8450317,35.0700073c0-2.6199951-0.4299927-5.1000366-1.1900024-7.3400269l-5.3500366,4.1900024v6.2999878  l5.3500366,4.1900024C43.4150391,40.1699829,43.8450317,37.6799927,43.8450317,35.0700073z"
     id="path3180"
     style="fill:#585858;fill-opacity:1" /></svg>